<svg width="113" height="53" viewBox="0 0 113 53" fill="none" xmlns="http://www.w3.org/2000/svg">
<path d="M15.656 29.336C14.8347 29.336 14.0667 29.2613 13.352 29.112C12.648 28.9733 12.056 28.7867 11.576 28.552C11.096 28.3173 10.7013 28.0933 10.392 27.88C10.0933 27.6667 9.84267 27.4533 9.64 27.24L10.04 23.352C10.4773 23.9387 11.064 24.4507 11.8 24.888C12.536 25.3147 13.3307 25.528 14.184 25.528C15.0373 25.528 15.6507 25.4373 16.024 25.256C16.408 25.0747 16.6 24.744 16.6 24.264C16.6 23.752 16.3813 23.3147 15.944 22.952C15.5173 22.5893 14.776 22.152 13.72 21.64C13.336 21.448 13.0107 21.2773 12.744 21.128C12.4773 20.968 12.12 20.712 11.672 20.36C11.2347 19.9973 10.8773 19.624 10.6 19.24C10.3227 18.8453 10.0773 18.344 9.864 17.736C9.65067 17.1173 9.544 16.456 9.544 15.752C9.544 11.944 11.6933 10.04 15.992 10.04C16.6747 10.04 17.3147 10.1147 17.912 10.264C18.52 10.4027 18.9947 10.5573 19.336 10.728C19.6773 10.8987 19.9867 11.1013 20.264 11.336C20.552 11.56 20.7333 11.72 20.808 11.816C20.8827 11.9013 20.936 11.9707 20.968 12.024L20.168 15.112C19.752 14.6213 19.2293 14.2587 18.6 14.024C17.9813 13.7787 17.3893 13.656 16.824 13.656C15.4587 13.656 14.776 14.0827 14.776 14.936C14.776 15.16 14.8187 15.3627 14.904 15.544C14.9893 15.7253 15.128 15.8907 15.32 16.04C15.512 16.1893 15.688 16.3173 15.848 16.424C16.0187 16.5307 16.248 16.664 16.536 16.824C16.8347 16.9733 17.0587 17.096 17.208 17.192C18.7653 17.8533 19.9067 18.6373 20.632 19.544C21.368 20.4507 21.736 21.5547 21.736 22.856C21.736 24.968 21.2133 26.5787 20.168 27.688C19.1333 28.7867 17.6293 29.336 15.656 29.336ZM23.4794 29V10.248H28.9354V29H23.4794ZM35.1829 29H30.3669L31.8549 10.248H39.3589L40.7669 16.536L41.4069 19.72L42.0149 16.552L43.2629 10.248H49.9509L51.3269 29H46.3509L45.5349 17.976L45.3429 13.912L42.8949 27.128H38.7189L35.7749 13.912L35.6789 17.976L35.1829 29ZM58.0242 29H52.7282V10.248H54.8402C55.4056 10.248 56.2589 10.2267 57.4002 10.184C58.5416 10.1307 59.4802 10.104 60.2162 10.104C62.2856 10.104 63.8536 10.6533 64.9202 11.752C65.9869 12.8507 66.5202 14.4987 66.5202 16.696C66.5202 18.0187 66.3442 19.224 65.9922 20.312C65.6509 21.3893 65.1869 22.2747 64.6003 22.968C64.0136 23.6613 63.3469 24.1947 62.6003 24.568C61.8536 24.9413 61.0642 25.128 60.2322 25.128C60.1256 25.128 60.0136 25.128 59.8963 25.128C59.7896 25.128 59.6883 25.128 59.5922 25.128C59.5069 25.1173 59.4002 25.112 59.2723 25.112C59.1549 25.1013 59.0589 25.096 58.9842 25.096C58.9202 25.0853 58.8242 25.08 58.6962 25.08C58.5789 25.0693 58.4989 25.064 58.4562 25.064C58.4136 25.064 58.3336 25.0587 58.2163 25.048C58.0989 25.0373 58.0349 25.032 58.0242 25.032V29ZM61.2722 15.992C61.2722 15.2027 61.0589 14.5627 60.6322 14.072C60.2056 13.5813 59.5923 13.336 58.7922 13.336H58.0242V21.656H58.6162C59.4589 21.656 60.1096 21.3733 60.5682 20.808C61.0376 20.2427 61.2722 19.4267 61.2722 18.36V15.992ZM67.7282 29V10.248H73.0242V24.712H77.7922V29H67.7282ZM90.6035 29H79.2595V10.248H90.3635L90.0435 14.024L84.5555 13.864V17.48H88.8755V21.224L84.5555 20.904V25.16L90.6035 25V29Z" fill="#2A7EFF"/>
<rect y="31" width="104" height="22" rx="2" fill="#2A7EFF"/>
<path d="M13.144 51C13.016 50.84 12.7387 50.216 12.312 49.128C11.896 48.0293 11.4053 46.792 10.84 45.416C10.2853 44.0293 9.79467 42.9787 9.368 42.264V51H4.072V32.248H9.368V41.224L13.352 32.248H18.68L13.912 41.048C14.2213 41.2613 14.632 41.8427 15.144 42.792C15.656 43.7413 16.136 44.7387 16.584 45.784C17.032 46.8293 17.496 47.88 17.976 48.936C18.456 49.9813 18.808 50.6693 19.032 51H13.144ZM29.0689 51L28.3489 48.008H23.8049L23.1969 51H18.4929L23.3729 33.544L22.9889 32.248H29.5969L34.9409 51H29.0689ZM25.8689 37.752L24.4609 44.744H27.5649L25.8689 37.752ZM40.66 51H35.572V33.752L34.788 32.248H40.676L43.62 38.328L46.436 44.392L45.652 37.272V32.248H50.756V51H45.876L42.068 43.592L39.716 38.952L40.66 45.096V51ZM59.4437 47.864C60.2011 47.864 60.7557 47.6507 61.1078 47.224C61.4597 46.7973 61.6357 46.2907 61.6357 45.704V44.584C61.6357 43.8907 61.4117 43.4 60.9637 43.112C60.5157 42.8133 60.0091 42.664 59.4437 42.664H58.1958V47.864H59.4437ZM61.4117 37.048C61.4117 36.408 61.2357 35.9653 60.8837 35.72C60.5317 35.464 60.0251 35.336 59.3637 35.336H58.1958V39.96H59.4918C60.1104 39.96 60.5851 39.72 60.9157 39.24C61.2464 38.7493 61.4117 38.152 61.4117 37.448V37.048ZM60.5317 51.144C59.6997 51.144 58.6224 51.1227 57.2998 51.08C55.9771 51.0373 55.0278 51.0107 54.4517 51H52.9157V32.248H55.6837C56.3557 32.248 57.1237 32.2267 57.9877 32.184C58.8517 32.1307 59.4757 32.104 59.8597 32.104C61.1077 32.104 62.1584 32.2053 63.0118 32.408C63.8757 32.6107 64.5531 32.9147 65.0438 33.32C65.5344 33.7253 65.8811 34.1947 66.0837 34.728C66.2971 35.2613 66.4038 35.896 66.4038 36.632C66.4038 37.7627 66.1424 38.7333 65.6198 39.544C65.0971 40.3547 64.3397 40.8613 63.3478 41.064C65.8651 41.288 67.1237 42.7653 67.1237 45.496C67.1237 46.3173 67.0011 47.064 66.7557 47.736C66.5104 48.3973 66.1318 48.9893 65.6198 49.512C65.1184 50.024 64.4358 50.424 63.5717 50.712C62.7077 51 61.6944 51.144 60.5317 51.144ZM77.8189 51L77.0989 48.008H72.5549L71.9469 51H67.2429L72.1229 33.544L71.7389 32.248H78.3469L83.6909 51H77.8189ZM74.6189 37.752L73.2109 44.744H76.3149L74.6189 37.752ZM89.41 51H84.322V33.752L83.538 32.248H89.426L92.37 38.328L95.186 44.392L94.402 37.272V32.248H99.506V51H94.626L90.818 43.592L88.466 38.952L89.41 45.096V51Z" fill="#FAFAFA"/>
</svg>
